<svg width="196" height="45" viewBox="0 0 196 45" fill="none" xmlns="http://www.w3.org/2000/svg">
<g filter="url(#filter0_b_1_45)">
<rect width="195.863" height="44.7715" rx="22.3858" fill="white" fill-opacity="0.15"/>
<path d="M44.0428 17.1239C44.0428 16.6819 44.5318 16.4149 44.9036 16.654L53.0887 21.9158C53.4308 22.1357 53.4308 22.6358 53.0887 22.8557L44.9036 28.1175C44.5318 28.3566 44.0428 28.0896 44.0428 27.6476V17.1239Z" fill="white"/>
<path d="M64.5778 26.3857H62.9958V16.7257H66.2998C68.7218 16.7257 70.2338 17.8177 70.2338 19.6797C70.2338 21.5557 68.7218 22.6477 66.2998 22.6477H64.5778V26.3857ZM66.4538 18.0277H64.5778V21.3457H66.4538C67.8118 21.3457 68.5818 20.7437 68.5818 19.6797C68.5818 18.6157 67.8118 18.0277 66.4538 18.0277ZM71.5078 26.3857V16.7257H73.0338V26.3857H71.5078ZM79.0701 25.0137C78.7761 25.9797 77.9921 26.5257 76.9421 26.5257C75.4861 26.5257 74.4641 25.6157 74.4641 24.3417C74.4641 22.8997 75.7241 22.3677 77.2781 22.1997L79.0561 22.0177V21.8077C79.0561 20.8697 78.5241 20.3797 77.6421 20.3797C76.7881 20.3797 76.2841 20.8137 76.2421 21.5977H74.7161C74.7721 20.2397 75.8641 19.2457 77.6701 19.2457C79.4481 19.2457 80.5821 20.1977 80.5821 22.0877V26.3857H79.1121V25.0137H79.0701ZM76.0741 24.3557C76.0741 25.0137 76.6621 25.3917 77.3341 25.3917C78.4261 25.3917 79.0561 24.6497 79.0561 23.3197V23.0817L77.5301 23.2497C76.6061 23.3477 76.0741 23.6837 76.0741 24.3557ZM85.3479 28.7657H83.8359L84.9139 25.5737H83.6539L81.5119 19.3857H83.0519L85.0539 25.1677L86.9999 19.3857H88.5259L85.3479 28.7657ZM100.149 23.7257C100.149 25.3357 98.5805 26.5257 96.3405 26.5257C93.7785 26.5257 92.3925 24.7337 92.2385 22.9837H93.8765C93.9745 24.2437 94.9965 25.2237 96.3545 25.2237C97.5865 25.2237 98.4965 24.6917 98.4965 23.7957C98.4965 23.0117 97.9085 22.5917 96.6625 22.2977L95.2625 21.9757C93.3725 21.5277 92.4345 20.6457 92.4345 19.3017C92.4345 17.6777 94.0305 16.5857 95.9765 16.5857C98.4405 16.5857 99.7005 17.9297 99.8685 19.5957H98.2305C98.1045 18.4477 97.1385 17.8877 96.0045 17.8877C94.8985 17.8877 94.1005 18.3637 94.1005 19.1897C94.1005 19.8477 94.5905 20.1557 96.0185 20.4917L97.4185 20.8277C99.2385 21.2477 100.149 22.1997 100.149 23.7257ZM103.139 26.3857H101.613V16.7257H103.097V20.7577H103.125C103.419 19.7777 104.147 19.2457 105.169 19.2457C106.709 19.2457 107.465 20.2957 107.465 21.8357V26.3857H105.939V22.2837C105.939 20.9817 105.477 20.3937 104.539 20.3937C103.601 20.3937 103.139 21.0377 103.139 22.1857V26.3857ZM115.751 22.8857C115.751 24.7757 114.449 26.5257 112.321 26.5257C110.193 26.5257 108.891 24.7757 108.891 22.8857C108.891 20.9957 110.193 19.2457 112.321 19.2457C114.449 19.2457 115.751 20.9957 115.751 22.8857ZM110.501 22.8857C110.501 24.3697 111.159 25.3917 112.321 25.3917C113.497 25.3917 114.155 24.3697 114.155 22.8857C114.155 21.3877 113.497 20.3797 112.321 20.3797C111.159 20.3797 110.501 21.3877 110.501 22.8857ZM120.869 26.3857H118.083L116.599 19.3857H118.139L119.525 25.9377L120.785 19.3857H123.473L124.733 25.9377L126.133 19.3857H127.659L126.175 26.3857H123.389L122.129 19.8337L120.869 26.3857ZM130.524 26.3857H128.998V19.3857H130.482V20.7577H130.51C130.804 19.7777 131.532 19.2457 132.61 19.2457V20.7717H132.372C131.07 20.7717 130.524 21.1497 130.524 22.4237V26.3857ZM139.611 24.2157C139.317 25.6017 138.225 26.5257 136.517 26.5257C134.431 26.5257 133.213 24.8177 133.213 22.8857C133.213 20.9537 134.403 19.2457 136.489 19.2457C138.575 19.2457 139.947 20.9397 139.737 23.3757H134.739C134.809 24.6497 135.551 25.3917 136.615 25.3917C137.525 25.3917 137.917 24.7757 138.085 24.2157H139.611ZM136.489 20.3797C135.467 20.3797 134.851 21.1077 134.753 22.2417H138.211C138.113 21.1077 137.511 20.3797 136.489 20.3797ZM147.227 24.2157C146.933 25.6017 145.841 26.5257 144.133 26.5257C142.047 26.5257 140.829 24.8177 140.829 22.8857C140.829 20.9537 142.019 19.2457 144.105 19.2457C146.191 19.2457 147.563 20.9397 147.353 23.3757H142.355C142.425 24.6497 143.167 25.3917 144.231 25.3917C145.141 25.3917 145.533 24.7757 145.701 24.2157H147.227ZM144.105 20.3797C143.083 20.3797 142.467 21.1077 142.369 22.2417H145.827C145.729 21.1077 145.127 20.3797 144.105 20.3797ZM148.836 26.3857V16.7257H150.362V26.3857H148.836Z" fill="white"/>
</g>
<defs>
<filter id="filter0_b_1_45" x="-51" y="-51" width="297.863" height="146.771" filterUnits="userSpaceOnUse" color-interpolation-filters="sRGB">
<feFlood flood-opacity="0" result="BackgroundImageFix"/>
<feGaussianBlur in="BackgroundImageFix" stdDeviation="25.5"/>
<feComposite in2="SourceAlpha" operator="in" result="effect1_backgroundBlur_1_45"/>
<feBlend mode="normal" in="SourceGraphic" in2="effect1_backgroundBlur_1_45" result="shape"/>
</filter>
</defs>
</svg>
